<?xml version="1.0" encoding="utf-8"?>
<svg xmlns="http://www.w3.org/2000/svg" version="1.1" width="2000" height="424" viewBox="0 0 2000 424">
  <g transform="matrix(1,0,0,1,-1.2121212121212466,-0.6791036446786904)">
    <svg viewBox="0 0 396 84" data-background-color="#ffffff" preserveAspectRatio="xMidYMid meet" height="424" width="2000" xmlns="http://www.w3.org/2000/svg">
      <g id="tight-bounds" transform="matrix(1,0,0,1,0.2400000000000091,0.13453940130426645)">
        <svg viewBox="0 0 395.52 83.73092119739148" height="83.73092119739148" width="395.52">
          <g>
            <svg viewBox="0 0 525.5923120641262 111.26701168941177" height="83.73092119739148" width="395.52">
              <g transform="matrix(1,0,0,1,130.07231206412624,5.93499604078432)">
                <svg viewBox="0 0 395.52 99.39701960784313" height="99.39701960784313" width="395.52">
                  <g id="textblocktransform">
                    <svg viewBox="0 0 395.52 99.39701960784313" height="99.39701960784313" width="395.52" id="textblock">
                      <g>
                        <svg viewBox="0 0 395.52 99.39701960784313" height="99.39701960784313" width="395.52">
                          <g transform="matrix(1,0,0,1,0,0)">
                            <svg width="395.52" viewBox="3 -37.7 152.99 38.45" height="99.39701960784313" data-palette-color="url(#b63e7db1-e980-459b-8b76-ee2fc3e4b232)"/>
                          </g>
                        </svg>
                      </g>
                    </svg>
                  </g>
                </svg>
              </g>
              <g>
                <svg viewBox="0 0 106.60706126318506 111.26701168941177" height="111.26701168941177" width="106.60706126318506">
                  <g>
                    <svg xmlns="http://www.w3.org/2000/svg" version="1.1" x="0" y="0" viewBox="7.222 5.352 85.55600000000001 89.29577777777779" enable-background="new 0 0 100 100" height="111.26701168941177" width="106.60706126318506" class="icon-icon-0" data-fill-palette-color="accent" id="icon-0"/>
                  </g>
                </svg>
              </g>
            </svg>
          </g>
          <mask id="1d5ff9fe-27d8-4e78-89f5-9351809992cf">
            <g id="SvgjsG1958">
              <svg viewBox="0 0 395.52 83.73092119739148" height="83.73092119739148" width="395.52">
                <g>
                  <svg viewBox="0 0 525.5923120641262 111.26701168941177" height="83.73092119739148" width="395.52">
                    <g transform="matrix(1,0,0,1,130.07231206412624,5.93499604078432)">
                      <svg viewBox="0 0 395.52 99.39701960784313" height="99.39701960784313" width="395.52">
                        <g id="SvgjsG1957">
                          <svg viewBox="0 0 395.52 99.39701960784313" height="99.39701960784313" width="395.52" id="SvgjsSvg1956">
                            <g>
                              <svg viewBox="0 0 395.52 99.39701960784313" height="99.39701960784313" width="395.52">
                                <g transform="matrix(1,0,0,1,0,0)">
                                  <svg width="395.52" viewBox="3 -37.7 152.99 38.45" height="99.39701960784313" data-palette-color="url(#b63e7db1-e980-459b-8b76-ee2fc3e4b232)">
                                    <path d="M3-34.55L20.15-34.55 19.5-29.8 9.35-29.8 9.35-19.9 18.2-19.9 18.2-15.2 9.35-15.2 9.35-4.8 20.15-4.8 20.15 0 3 0 3-34.55ZM37.45-37.7L43.6-37.05 43.6 0 38.15 0 37.85-3.05Q35.5 0.75 31.8 0.75L31.8 0.75Q27.7 0.75 25.52-2.93 23.35-6.6 23.35-13.2L23.35-13.2Q23.35-17.4 24.47-20.58 25.6-23.75 27.6-25.45 29.6-27.15 32.2-27.15L32.2-27.15Q35.4-27.15 37.45-24.5L37.45-24.5 37.45-37.7ZM33.55-3.9Q34.7-3.9 35.62-4.7 36.55-5.5 37.45-7L37.45-7 37.45-19.85Q35.85-22.55 33.8-22.55L33.8-22.55Q29.75-22.55 29.75-13.25L29.75-13.25Q29.75-8.2 30.75-6.05 31.75-3.9 33.55-3.9L33.55-3.9ZM67.45-26.45L67.45 0 62.1 0 61.8-3.35Q60.55-1.3 59-0.28 57.45 0.75 55.4 0.75L55.4 0.75Q52.5 0.75 50.82-1.3 49.15-3.35 49.15-6.65L49.15-6.65 49.15-26.45 55.3-26.45 55.3-7Q55.3-3.9 57.4-3.9L57.4-3.9Q58.6-3.9 59.55-4.83 60.5-5.75 61.3-7.45L61.3-7.45 61.3-26.45 67.45-26.45ZM81.19-34.55Q87.44-34.55 90.72-31.78 93.99-29 93.99-23.6L93.99-23.6Q93.99-17.85 90.77-15 87.54-12.15 81.64-12.15L81.64-12.15 79.64-12.15 79.64 0 73.29 0 73.29-34.55 81.19-34.55ZM81.29-16.9Q84.54-16.9 85.99-18.4 87.44-19.9 87.44-23.55L87.44-23.55Q87.44-26.85 85.99-28.35 84.54-29.85 81.34-29.85L81.34-29.85 79.64-29.85 79.64-16.9 81.29-16.9ZM106.99-27.15Q111.99-27.15 114.77-23.65 117.54-20.15 117.54-13.25L117.54-13.25Q117.54-6.65 114.74-2.95 111.94 0.75 106.99 0.75L106.99 0.75Q102.04 0.75 99.24-2.88 96.44-6.5 96.44-13.25L96.44-13.25Q96.44-19.95 99.24-23.55 102.04-27.15 106.99-27.15L106.99-27.15ZM106.99-22.5Q104.84-22.5 103.84-20.38 102.84-18.25 102.84-13.25L102.84-13.25Q102.84-8.2 103.84-6.08 104.84-3.95 106.99-3.95L106.99-3.95Q109.14-3.95 110.14-6.08 111.14-8.2 111.14-13.25L111.14-13.25Q111.14-18.3 110.14-20.4 109.14-22.5 106.99-22.5L106.99-22.5ZM131.49-27.15Q136.49-27.15 139.26-23.65 142.04-20.15 142.04-13.25L142.04-13.25Q142.04-6.65 139.24-2.95 136.44 0.75 131.49 0.75L131.49 0.75Q126.54 0.75 123.74-2.88 120.94-6.5 120.94-13.25L120.94-13.25Q120.94-19.95 123.74-23.55 126.54-27.15 131.49-27.15L131.49-27.15ZM131.49-22.5Q129.34-22.5 128.34-20.38 127.34-18.25 127.34-13.25L127.34-13.25Q127.34-8.2 128.34-6.08 129.34-3.95 131.49-3.95L131.49-3.95Q133.64-3.95 134.64-6.08 135.64-8.2 135.64-13.25L135.64-13.25Q135.64-18.3 134.64-20.4 133.64-22.5 131.49-22.5L131.49-22.5ZM152.19 0.75Q149.49 0.75 147.91-0.93 146.34-2.6 146.34-5.4L146.34-5.4 146.34-37.05 152.49-37.7 152.49-5.65Q152.49-5 152.79-4.6 153.09-4.2 153.69-4.2L153.69-4.2Q154.04-4.2 154.36-4.3 154.69-4.4 154.79-4.4L154.79-4.4 155.99-0.2Q154.29 0.75 152.19 0.75L152.19 0.75Z" opacity="1" transform="matrix(1,0,0,1,0,0)" fill="white" class="wordmark-text-0" id="SvgjsPath1955"/>
                                  </svg>
                                </g>
                              </svg>
                            </g>
                          </svg>
                        </g>
                      </svg>
                    </g>
                    <g>
                      <svg viewBox="0 0 106.60706126318506 111.26701168941177" height="111.26701168941177" width="106.60706126318506">
                        <g>
                          <svg xmlns="http://www.w3.org/2000/svg" version="1.1" x="0" y="0" viewBox="7.222 5.352 85.55600000000001 89.29577777777779" enable-background="new 0 0 100 100" height="111.26701168941177" width="106.60706126318506" class="icon-icon-0" data-fill-palette-color="accent" id="SvgjsSvg1954">
                            <g fill="black">
                              <g fill="black">
                                <path d="M64.004 13.952l-39.124-8.6L7.222 34.782l13.652 2.912c1.601-2.041 4.647-5.181 9.699-7.948 0.486-0.299 0.959-0.573 1.401-0.799 0.449-0.23 0.97-0.448 1.522-0.66 1.489-0.662 3.116-1.28 4.894-1.829 7.592-2.339 17.506-1.143 25.614 2.897V13.952z" fill="black"/>
                                <path d="M65.778 14.342v15.985c0.363 0.208 0.749 0.384 1.103 0.604 2.782 1.729 5.949 4.262 8.518 7.8l17.379-18.454L65.778 14.342z" fill="black"/>
                              </g>
                              <g fill="black">
                                <path d="M62.906 41.347v-3.643c0-0.761 0.454-1.406 1.098-1.715v-3.44c-7.698-4.27-17.448-5.673-24.786-3.409-12.981 4.005-17.288 11.937-17.33 12.016l-0.001-0.001c-1.361 3.989-2.565 10.101-2.565 10.101 6.78-6.78 16.754-5.065 16.754-5.065 12.489-4.175 21.273-3.574 27.125-1.724l0.159-1.926C63.09 42.211 62.906 41.806 62.906 41.347z" fill="black"/>
                                <path d="M64.821 36.677c-0.567 0-1.028 0.461-1.028 1.027v3.643c0 0.567 0.461 1.028 1.028 1.028s1.028-0.461 1.028-1.028v-3.643C65.849 37.138 65.388 36.677 64.821 36.677z" fill="black"/>
                                <path d="M65.778 33.563v2.521c0.562 0.334 0.958 0.921 0.958 1.62v3.643c0 0.592-0.286 1.101-0.709 1.453l0.235 2.844c4.62 2.143 6.596 4.832 6.596 4.832 1.13-3.686 1.667-6.407 1.86-7.496C72.329 38.578 68.845 35.534 65.778 33.563z" fill="black"/>
                              </g>
                              <g fill="black">
                                <path d="M64.247 43.249c0 0-4.822 50.185-3.841 51.025 0.982 0.841 3.083 0 3.083 0s-0.14-3.083 0.841-2.943c0.982 0.14 1.121 0.141 1.542-1.681 0.42-1.822 0.281-1.261 0.981-4.204 0.701-2.943-1.321-41.017-1.671-42.138L64.247 43.249z" fill="black"/>
                              </g>
                            </g>
                          </svg>
                        </g>
                      </svg>
                    </g>
                  </svg>
                </g>
              </svg>
              <rect width="395.52" height="83.73092119739148" fill="black" stroke="none" visibility="hidden"/>
            </g>
          </mask>
          <rect width="395.52" height="83.73092119739148" fill="#000000" mask="url(#1d5ff9fe-27d8-4e78-89f5-9351809992cf)" data-fill-palette-color="primary"/>
          <mask id="b458edbb-83b2-4af6-9bda-062d3c13f1a0">
            <g id="SvgjsG1967">
              <svg viewBox="0 0 395.52 83.73092119739148" height="83.73092119739148" width="395.52">
                <g>
                  <svg viewBox="0 0 525.5923120641262 111.26701168941177" height="83.73092119739148" width="395.52">
                    <g transform="matrix(1,0,0,1,130.07231206412624,5.93499604078432)">
                      <svg viewBox="0 0 395.52 99.39701960784313" height="99.39701960784313" width="395.52">
                        <g id="SvgjsG1966">
                          <svg viewBox="0 0 395.52 99.39701960784313" height="99.39701960784313" width="395.52" id="SvgjsSvg1965">
                            <g>
                              <svg viewBox="0 0 395.52 99.39701960784313" height="99.39701960784313" width="395.52">
                                <g transform="matrix(1,0,0,1,0,0)">
                                  <svg width="395.52" viewBox="3 -37.7 152.99 38.45" height="99.39701960784313" data-palette-color="url(#b63e7db1-e980-459b-8b76-ee2fc3e4b232)"/>
                                </g>
                              </svg>
                            </g>
                          </svg>
                        </g>
                      </svg>
                    </g>
                    <g>
                      <svg viewBox="0 0 106.60706126318506 111.26701168941177" height="111.26701168941177" width="106.60706126318506">
                        <g>
                          <svg xmlns="http://www.w3.org/2000/svg" version="1.1" x="0" y="0" viewBox="7.222 5.352 85.55600000000001 89.29577777777779" enable-background="new 0 0 100 100" height="111.26701168941177" width="106.60706126318506" class="icon-icon-0" data-fill-palette-color="accent" id="SvgjsSvg1964">
                            <g fill="white">
                              <g fill="white">
                                <path d="M64.004 13.952l-39.124-8.6L7.222 34.782l13.652 2.912c1.601-2.041 4.647-5.181 9.699-7.948 0.486-0.299 0.959-0.573 1.401-0.799 0.449-0.23 0.97-0.448 1.522-0.66 1.489-0.662 3.116-1.28 4.894-1.829 7.592-2.339 17.506-1.143 25.614 2.897V13.952z" fill="white"/>
                                <path d="M65.778 14.342v15.985c0.363 0.208 0.749 0.384 1.103 0.604 2.782 1.729 5.949 4.262 8.518 7.8l17.379-18.454L65.778 14.342z" fill="white"/>
                              </g>
                              <g fill="white">
                                <path d="M62.906 41.347v-3.643c0-0.761 0.454-1.406 1.098-1.715v-3.44c-7.698-4.27-17.448-5.673-24.786-3.409-12.981 4.005-17.288 11.937-17.33 12.016l-0.001-0.001c-1.361 3.989-2.565 10.101-2.565 10.101 6.78-6.78 16.754-5.065 16.754-5.065 12.489-4.175 21.273-3.574 27.125-1.724l0.159-1.926C63.09 42.211 62.906 41.806 62.906 41.347z" fill="white"/>
                                <path d="M64.821 36.677c-0.567 0-1.028 0.461-1.028 1.027v3.643c0 0.567 0.461 1.028 1.028 1.028s1.028-0.461 1.028-1.028v-3.643C65.849 37.138 65.388 36.677 64.821 36.677z" fill="white"/>
                                <path d="M65.778 33.563v2.521c0.562 0.334 0.958 0.921 0.958 1.62v3.643c0 0.592-0.286 1.101-0.709 1.453l0.235 2.844c4.62 2.143 6.596 4.832 6.596 4.832 1.13-3.686 1.667-6.407 1.86-7.496C72.329 38.578 68.845 35.534 65.778 33.563z" fill="white"/>
                              </g>
                              <g fill="white">
                                <path d="M64.247 43.249c0 0-4.822 50.185-3.841 51.025 0.982 0.841 3.083 0 3.083 0s-0.14-3.083 0.841-2.943c0.982 0.14 1.121 0.141 1.542-1.681 0.42-1.822 0.281-1.261 0.981-4.204 0.701-2.943-1.321-41.017-1.671-42.138L64.247 43.249z" fill="white"/>
                              </g>
                            </g>
                          </svg>
                        </g>
                      </svg>
                    </g>
                  </svg>
                </g>
              </svg>
              <rect width="395.52" height="83.73092119739148" fill="black" stroke="none" visibility="hidden"/>
            </g>
          </mask>
          <rect width="395.52" height="83.73092119739148" fill="#000000" mask="url(#b458edbb-83b2-4af6-9bda-062d3c13f1a0)" data-fill-palette-color="accent"/>
        </svg>
        <rect width="395.52" height="83.73092119739148" fill="none" stroke="none" visibility="hidden"/>
      </g>
    </svg>
  </g>
  <rect x="436.813" y="19.231" width="1565.94" height="395.604" style="fill: rgb(255, 255, 255);"/>
  <text style="fill: rgb(51, 51, 51); font-family: Arial, sans-serif; font-size: 126px; font-weight: 700; white-space: pre;" x="575.464" y="255.956">ST.GEORGE'S</text>
  <text style="fill: rgb(51, 51, 51); font-family: Arial, sans-serif; font-size: 73px; white-space: pre;" x="607.143" y="337.912">BIOLOGY CLASS</text>
</svg>